<svg width="160" height="20" viewBox="0 0 160 20" fill="none" xmlns="http://www.w3.org/2000/svg">
            <path fill-rule="evenodd" clip-rule="evenodd" d="M12.7314 5.08272C12.4692 4.25766 12.2361 3.55097 11.828 2.9032C11.2746 1.90155 10.8378 1.66551 9.20601 1.66551H6.08892C5.24415 1.66551 5.15647 1.75416 5.15647 2.60824V9.41222H8.76918C10.8668 9.41222 11.0123 9.05924 11.4494 6.99719H12.3234V13.1532H11.4204C11.0415 11.0914 10.8378 10.62 8.76918 10.62H5.15647V15.8922C5.15647 18.4552 5.44786 18.5729 8.0989 18.8082V19.6332H0V18.8082C2.35982 18.6318 2.62199 18.4255 2.62199 15.8922L2.62216 4.22864C2.62216 1.66551 2.33077 1.54784 0 1.31252V0.487452H9.23541C11.8572 0.487452 12.8478 0.45844 13.343 0.428711C13.3723 1.4891 13.4888 3.55097 13.6344 4.96506L12.7314 5.08272Z" fill="#000001"></path>
            <path fill-rule="evenodd" clip-rule="evenodd" d="M21.3548 10.2959C22.8699 10.2959 23.8314 10.0598 24.5594 9.4418C25.6959 8.58772 26.1618 7.40949 26.1618 5.81899C26.1618 2.66701 24.0936 1.51868 21.8501 1.51868C21.0053 1.51868 20.5101 1.63635 20.306 1.81275C20.0438 2.01906 19.9565 2.31384 19.9565 3.07945V10.2959H21.3548ZM32.1053 19.8684C31.7264 19.8684 31.406 19.8394 31.0274 19.8097C28.9005 19.6621 27.7642 19.1028 26.4826 17.2763C25.4046 15.7742 24.3559 13.9187 23.4235 12.4167C22.8408 11.4739 22.4621 11.2974 20.9763 11.2974H19.9565V15.9218C19.9565 18.4253 20.277 18.5727 22.6077 18.808V19.6331H14.8291V18.808C17.2472 18.543 17.4511 18.4253 17.4511 15.9218V4.16957C17.4513 1.66536 17.1308 1.57743 14.8291 1.31237V0.487305H22.2582C24.385 0.487305 25.8123 0.752358 26.9194 1.48896C28.114 2.25439 28.9005 3.57983 28.9005 5.37682C28.9005 7.91005 27.2983 9.50055 25.1424 10.4433C25.6669 11.3563 26.9194 13.3297 27.7936 14.6551C28.8715 16.2159 29.425 16.9525 30.095 17.6889C30.8815 18.543 31.5518 18.867 32.2217 19.0441L32.1053 19.8684Z" fill="#000001"></path>
            <path fill-rule="evenodd" clip-rule="evenodd" d="M67.915 19.6331V18.808C70.3039 18.5727 70.3912 18.3956 70.3622 15.2441L70.3912 3.22684C68.0024 8.61674 64.1569 17.041 63.1371 19.6331H62.3797C61.3889 16.9523 58.097 8.85278 55.883 3.52109C55.3877 13.83 55.3587 16.1571 55.3587 16.717C55.3877 18.3664 56.1161 18.6017 58.097 18.808V19.6331H51.1924V18.808C52.8819 18.6316 53.5813 18.2779 53.8144 16.6872C53.9894 15.3915 54.0184 14.3311 54.776 3.57983C54.8924 2.04879 54.601 1.5477 52.0372 1.31237V0.487305H57.1065L63.5449 15.4207L70.4495 0.487305H75.5479L75.5477 1.31237C73.0425 1.60662 72.722 1.87167 72.7803 3.93353L72.897 15.2441C73.0134 18.3956 73.1006 18.543 75.6644 18.808V19.6331H67.915Z" fill="#000001"></path>
            <path fill-rule="evenodd" clip-rule="evenodd" d="M44.2565 18.6852V17.4526H45.4758V16.2199H46.695V13.7545H47.907V6.366H46.695V3.90799H45.4758V2.67531H44.2565V1.44264H47.3499V2.67531H48.5619V3.90799H49.7811V6.366H51.0003V13.7545H49.7811V16.2199H48.5619V17.4526H47.3499V18.6852H44.2565ZM36.8288 19.9106V18.5561H45.5372V19.9106H36.8288ZM36.8288 1.5329V0.209961H45.5372V1.5329H36.8288ZM35.0743 18.6852V17.4526H33.855V16.2199H32.6356V13.7544H31.4238V6.366H32.6358V3.90799H33.855V2.67531H35.0743V1.44264H38.1676V2.67531H36.9484V3.90799H35.7292V6.366H34.5099V13.7544H35.7292V16.2199H36.9484V17.4526H38.1676V18.6852H35.0743Z" fill="#000001"></path>
            <path fill-rule="evenodd" clip-rule="evenodd" d="M96.714 1.23646C94.2959 1.4725 94.0628 1.61918 94.0628 4.09366V15.9046C94.0628 18.3791 94.325 18.4678 96.714 18.7328V19.5572H88.9064V18.7328C91.3245 18.4381 91.5576 18.3791 91.5576 15.9046V10.0144H81.9211V15.9046C81.9211 18.3499 82.1542 18.4379 84.5433 18.7328V19.5572H76.7646V18.7328C79.1245 18.4678 79.3866 18.3791 79.3866 15.9046V4.09366C79.3866 1.61918 79.1245 1.4725 76.7646 1.23646V0.412109H84.5433V1.23646C82.2125 1.44277 81.9211 1.6489 81.9211 4.09366V8.77687H91.5576V4.09366C91.5576 1.6489 91.2368 1.44277 88.9064 1.23646V0.412109H96.714V1.23646Z" fill="#000001"></path>
            <path fill-rule="evenodd" clip-rule="evenodd" d="M112.934 14.8743C112.759 15.6399 111.973 18.6742 111.681 19.5575H97.5225V18.733C100.232 18.5269 100.436 18.2618 100.436 15.8461V4.21165C100.436 1.59031 100.115 1.44292 97.9302 1.23679V0.412257H106.845C109.584 0.412257 110.72 0.382528 111.07 0.353516C111.099 1.08922 111.215 3.29865 111.332 4.85942L110.458 5.00699C110.195 4.00534 109.904 3.3873 109.584 2.76854C109.118 1.79662 108.448 1.59049 106.699 1.59031H103.932C103.029 1.59031 102.97 1.67896 102.97 2.53304V9.04225H106.204C108.389 9.04225 108.535 8.60061 108.884 6.59749H109.788V12.6649H108.884C108.506 10.5448 108.273 10.25 106.175 10.25H102.97V16.1113C102.97 18.1731 103.611 18.3503 105.068 18.3795H107.777C109.555 18.3795 109.846 18.1142 110.487 17.3488C111.041 16.73 111.652 15.5223 112.06 14.639L112.934 14.8743Z" fill="#000001"></path>
            <path fill-rule="evenodd" clip-rule="evenodd" d="M124.37 10.0151V8.82091H125.551V2.85488H124.37V1.78715H118.469V10.0151H124.37ZM113.423 19.5572V18.2618H115.779V1.78715H113.423V0.46582H125.551V1.66071H126.733V2.85488H128.242V8.82091H126.733V10.0151H125.551V11.21H123.188V12.3972H124.37V13.5919H125.551V14.7862H126.733V15.9811H127.915V17.1753H129.089V18.2919H130.797V19.5572H126.733V18.3702H125.551V17.1753H124.37V15.9811H123.188V14.7862H122.007V13.5919H120.832V12.397H119.651V11.21H118.469V18.2618H120.832V19.5572H113.423Z" fill="#000001"></path>
            <mask id="mask0_0_2997" style="mask-type:alpha" maskUnits="userSpaceOnUse" x="130" y="0" width="19" height="20">
            <path fill-rule="evenodd" clip-rule="evenodd" d="M130.354 0H148.797V19.5577H130.354V0Z" fill="white"></path>
            </mask>
            <g mask="url(#mask0_0_2997)">
            <path fill-rule="evenodd" clip-rule="evenodd" d="M138.688 3.85885C137.756 6.39154 136.765 9.07216 135.891 11.3993H141.339L138.688 3.85885ZM141.601 19.5577V18.7334C143.495 18.4973 143.728 18.2031 143.32 17.0839C142.942 15.9349 142.359 14.4621 141.747 12.6063H135.454C134.988 13.9318 134.551 15.0808 134.143 16.2886C133.502 18.2031 133.91 18.4386 136.299 18.7334V19.5577H130.552L130.354 18.2924C131.722 18.3082 131.871 18.291 132.89 15.6401L138.921 0.176583L139.853 0C141.689 5.03691 143.699 10.6039 145.534 15.6996C146.467 18.262 146.729 18.4973 148.797 18.7334V19.5577H141.601Z" fill="#000001"></path>
            </g>
            <path fill-rule="evenodd" clip-rule="evenodd" d="M158.398 4.88934C157.903 2.94513 157.087 1.03048 154.348 1.03048C152.076 1.03048 151.289 2.70981 151.289 4.24139C151.289 6.2737 152.571 7.3049 154.989 8.57089C158.485 10.3976 160 11.7521 160 14.5505C160 17.6431 157.349 19.9999 153.591 19.9999C151.843 19.9999 150.328 19.4988 149.133 19.0274C148.9 18.2031 148.551 16.1999 148.347 14.6093L149.25 14.3739C149.833 16.3473 151.115 18.9098 154.144 18.9098C156.242 18.9098 157.524 17.4367 157.524 15.5223C157.524 13.2548 156.329 12.3411 153.765 10.9277C150.707 9.24857 148.988 7.83447 148.988 5.09565C148.988 2.47431 151.144 0 154.989 0C156.621 0 158.223 0.441457 158.835 0.559298C158.951 1.61951 159.068 2.79828 159.301 4.71275L158.398 4.88934Z" fill="#000001"></path>
            </svg>